<svg width="64" height="64" viewBox="0 0 64 64" fill="none" xmlns="http://www.w3.org/2000/svg">
  <rect width="64" height="64" rx="16" fill="url(#paint0_linear)" fill-opacity="0.1"/>
  <path d="M32 16C23.16 16 16 23.16 16 32C16 40.84 23.16 48 32 48C40.84 48 48 40.84 48 32C48 23.16 40.84 16 32 16ZM32 20C38.62 20 44 25.38 44 32C44 38.62 38.62 44 32 44C25.38 44 20 38.62 20 32C20 25.38 25.38 20 32 20Z" fill="url(#paint1_linear)"/>
  <path d="M32 24C27.58 24 24 27.58 24 32C24 36.42 27.58 40 32 40C36.42 40 40 36.42 40 32C40 27.58 36.42 24 32 24ZM32 36C29.8 36 28 34.2 28 32C28 29.8 29.8 28 32 28C34.2 28 36 29.8 36 32C36 34.2 34.2 36 32 36Z" fill="url(#paint2_linear)"/>
  <path d="M32 32C32 34.2 34.2 36 36 36C37.8 36 39.4 34.8 40 33.2C40 36.4 37.4 39 34.2 39C31 39 28.4 36.4 28.4 33.2C28.4 30 31 27.4 34.2 27.4C35.8 27.4 37.2 28.2 38 29.4C36.4 29.4 35 30.4 34.4 32H32Z" fill="white"/>
  <defs>
    <linearGradient id="paint0_linear" x1="0" y1="32" x2="64" y2="32" gradientUnits="userSpaceOnUse">
      <stop stop-color="#6366F1"/>
      <stop offset="1" stop-color="#A855F7"/>
    </linearGradient>
    <linearGradient id="paint1_linear" x1="16" y1="32" x2="48" y2="32" gradientUnits="userSpaceOnUse">
      <stop stop-color="#6366F1"/>
      <stop offset="1" stop-color="#A855F7"/>
    </linearGradient>
    <linearGradient id="paint2_linear" x1="24" y1="32" x2="40" y2="32" gradientUnits="userSpaceOnUse">
      <stop stop-color="#6366F1"/>
      <stop offset="1" stop-color="#A855F7"/>
    </linearGradient>
  </defs>
</svg>
