<svg width="64" height="64" viewBox="0 0 64 64" fill="none" xmlns="http://www.w3.org/2000/svg">
  <rect width="64" height="64" rx="16" fill="url(#paint0_linear)" fill-opacity="0.1"/>
  <path d="M40 20H24C21.8 20 20 21.8 20 24V40C20 42.2 21.8 44 24 44H40C42.2 44 44 42.2 44 40V24C44 21.8 42.2 20 40 20ZM40 40H24V24H40V40Z" fill="url(#paint1_linear)"/>
  <path d="M28 32C29.1046 32 30 31.1046 30 30C30 28.8954 29.1046 28 28 28C26.8954 28 26 28.8954 26 30C26 31.1046 26.8954 32 28 32Z" fill="url(#paint2_linear)"/>
  <path d="M36 32C37.1046 32 38 31.1046 38 30C38 28.8954 37.1046 28 36 28C34.8954 28 34 28.8954 34 30C34 31.1046 34.8954 32 36 32Z" fill="url(#paint3_linear)"/>
  <path d="M32 38C34.2091 38 36 36.2091 36 34C36 31.7909 34.2091 30 32 30C29.7909 30 28 31.7909 28 34C28 36.2091 29.7909 38 32 38Z" fill="white" fill-opacity="0.6"/>
  <path d="M32 36C33.1046 36 34 35.1046 34 34C34 32.8954 33.1046 32 32 32C30.8954 32 30 32.8954 30 34C30 35.1046 30.8954 36 32 36Z" fill="white"/>
  <defs>
    <linearGradient id="paint0_linear" x1="0" y1="32" x2="64" y2="32" gradientUnits="userSpaceOnUse">
      <stop stop-color="#6366F1"/>
      <stop offset="1" stop-color="#A855F7"/>
    </linearGradient>
    <linearGradient id="paint1_linear" x1="20" y1="32" x2="44" y2="32" gradientUnits="userSpaceOnUse">
      <stop stop-color="#6366F1"/>
      <stop offset="1" stop-color="#A855F7"/>
    </linearGradient>
    <linearGradient id="paint2_linear" x1="26" y1="30" x2="30" y2="30" gradientUnits="userSpaceOnUse">
      <stop stop-color="#6366F1"/>
      <stop offset="1" stop-color="#A855F7"/>
    </linearGradient>
    <linearGradient id="paint3_linear" x1="34" y1="30" x2="38" y2="30" gradientUnits="userSpaceOnUse">
      <stop stop-color="#6366F1"/>
      <stop offset="1" stop-color="#A855F7"/>
    </linearGradient>
  </defs>
</svg>
